<svg width="207" height="206" viewBox="0 0 207 206" fill="none" xmlns="http://www.w3.org/2000/svg">
<circle cx="103.461" cy="103" r="103" fill="#656CFF"/>
<circle cx="103.461" cy="103" r="103" fill="url(#paint0_linear_203_620)" fill-opacity="0.5"/>
<path d="M204.461 103C205.566 103 206.463 102.104 206.442 101C206.06 81.3273 200.05 62.1598 189.102 45.7763C177.785 28.838 161.698 15.6362 142.877 7.84041C124.057 0.0445819 103.347 -1.99516 83.3668 1.97912C64.0411 5.82324 46.2378 15.1269 32.057 28.7675C31.2609 29.5333 31.2622 30.8012 32.0433 31.5822L102.875 102.414C103.25 102.789 103.759 103 104.29 103H204.461Z" fill="#646981"/>
<path d="M204.461 103C205.566 103 206.463 102.104 206.442 101C206.06 81.3273 200.05 62.1598 189.102 45.7763C177.785 28.838 161.698 15.6362 142.877 7.84041C124.057 0.0445819 103.347 -1.99516 83.3668 1.97912C64.0411 5.82324 46.2378 15.1269 32.057 28.7675C31.2609 29.5333 31.2622 30.8012 32.0433 31.5822L102.875 102.414C103.25 102.789 103.759 103 104.29 103H204.461Z" fill="url(#paint1_linear_203_620)"/>
<path d="M120.242 60H110.262V57.9004L113.846 54.2773C114.568 53.5352 115.148 52.9167 115.584 52.4219C116.027 51.9206 116.346 51.4648 116.541 51.0547C116.743 50.6445 116.844 50.2051 116.844 49.7363C116.844 49.1699 116.684 48.7467 116.365 48.4668C116.053 48.1803 115.633 48.0371 115.106 48.0371C114.552 48.0371 114.015 48.1641 113.494 48.418C112.973 48.6719 112.43 49.0332 111.863 49.502L110.223 47.5586C110.633 47.207 111.066 46.875 111.522 46.5625C111.984 46.25 112.518 45.9993 113.123 45.8105C113.735 45.6152 114.468 45.5176 115.32 45.5176C116.258 45.5176 117.062 45.6868 117.733 46.0254C118.41 46.3639 118.93 46.8262 119.295 47.4121C119.66 47.9915 119.842 48.6491 119.842 49.3848C119.842 50.1725 119.686 50.8919 119.373 51.543C119.061 52.194 118.605 52.8385 118.006 53.4766C117.414 54.1146 116.697 54.821 115.858 55.5957L114.022 57.3242V57.4609H120.242V60ZM127.402 50.8789C128.275 50.8789 129.05 51.0449 129.727 51.377C130.41 51.709 130.947 52.1973 131.338 52.8418C131.729 53.4863 131.924 54.2806 131.924 55.2246C131.924 56.2533 131.709 57.1419 131.279 57.8906C130.856 58.6328 130.221 59.2025 129.375 59.5996C128.535 59.9967 127.487 60.1953 126.231 60.1953C125.482 60.1953 124.776 60.1302 124.111 60C123.454 59.8763 122.878 59.6842 122.383 59.4238V56.8164C122.878 57.0768 123.47 57.2982 124.16 57.4805C124.857 57.6562 125.511 57.7441 126.123 57.7441C126.722 57.7441 127.227 57.666 127.637 57.5098C128.047 57.347 128.356 57.0996 128.565 56.7676C128.779 56.429 128.887 55.9993 128.887 55.4785C128.887 54.7819 128.652 54.248 128.184 53.877C127.715 53.5059 126.996 53.3203 126.026 53.3203C125.654 53.3203 125.267 53.3561 124.863 53.4277C124.466 53.4993 124.134 53.571 123.867 53.6426L122.666 52.998L123.203 45.7227H130.947V48.2812H125.85L125.586 51.084C125.807 51.0384 126.048 50.9928 126.309 50.9473C126.569 50.9017 126.934 50.8789 127.402 50.8789ZM137.336 45.5176C138.456 45.5176 139.305 45.9082 139.885 46.6895C140.464 47.4707 140.754 48.5677 140.754 49.9805C140.754 51.3932 140.481 52.4967 139.934 53.291C139.387 54.0853 138.521 54.4824 137.336 54.4824C136.236 54.4824 135.399 54.0853 134.826 53.291C134.253 52.4967 133.967 51.3932 133.967 49.9805C133.967 48.5677 134.234 47.4707 134.768 46.6895C135.308 45.9082 136.164 45.5176 137.336 45.5176ZM137.356 47.5586C137.037 47.5586 136.802 47.7604 136.652 48.1641C136.503 48.5677 136.428 49.1797 136.428 50C136.428 50.8203 136.503 51.4355 136.652 51.8457C136.802 52.2559 137.037 52.4609 137.356 52.4609C137.675 52.4609 137.909 52.2591 138.059 51.8555C138.215 51.4453 138.293 50.8268 138.293 50C138.293 49.1797 138.215 48.5677 138.059 48.1641C137.909 47.7604 137.675 47.5586 137.356 47.5586ZM147.473 45.7227L139.553 60H137.209L145.129 45.7227H147.473ZM147.336 51.2207C148.456 51.2207 149.305 51.6113 149.885 52.3926C150.464 53.1738 150.754 54.2708 150.754 55.6836C150.754 57.0898 150.481 58.1901 149.934 58.9844C149.387 59.7786 148.521 60.1758 147.336 60.1758C146.236 60.1758 145.399 59.7786 144.826 58.9844C144.253 58.1901 143.967 57.0898 143.967 55.6836C143.967 54.2708 144.234 53.1738 144.768 52.3926C145.308 51.6113 146.164 51.2207 147.336 51.2207ZM147.356 53.2617C147.037 53.2617 146.802 53.4635 146.652 53.8672C146.503 54.2708 146.428 54.8828 146.428 55.7031C146.428 56.5234 146.503 57.1387 146.652 57.5488C146.802 57.959 147.037 58.1641 147.356 58.1641C147.675 58.1641 147.909 57.9622 148.059 57.5586C148.215 57.1484 148.293 56.5299 148.293 55.7031C148.293 54.8828 148.215 54.2708 148.059 53.8672C147.909 53.4635 147.675 53.2617 147.356 53.2617Z" fill="white"/>
<path d="M65.6779 152L71.0392 140.281H63.9982V137.742H74.2423V139.637L68.8419 152H65.6779ZM81.3829 142.879C82.7632 142.879 83.8602 143.266 84.674 144.041C85.4943 144.816 85.9044 145.877 85.9044 147.225C85.9044 148.82 85.4129 150.047 84.4298 150.906C83.4468 151.766 82.0405 152.195 80.2111 152.195C78.6225 152.195 77.34 151.938 76.3634 151.424V148.816C76.8777 149.09 77.4767 149.314 78.1603 149.49C78.8439 149.66 79.4917 149.744 80.1037 149.744C81.9461 149.744 82.8673 148.989 82.8673 147.479C82.8673 146.04 81.9135 145.32 80.006 145.32C79.6609 145.32 79.2801 145.356 78.8634 145.428C78.4468 145.493 78.1082 145.564 77.8478 145.643L76.6466 144.998L77.1837 137.723H84.9279V140.281H79.8302L79.5665 143.084L79.9083 143.016C80.3055 142.924 80.797 142.879 81.3829 142.879ZM90.3888 142C90.3888 142.827 90.4604 143.445 90.6037 143.855C90.7534 144.259 90.991 144.461 91.3165 144.461C91.9415 144.461 92.254 143.641 92.254 142C92.254 140.372 91.9415 139.559 91.3165 139.559C90.991 139.559 90.7534 139.76 90.6037 140.164C90.4604 140.561 90.3888 141.173 90.3888 142ZM94.715 141.98C94.715 143.478 94.4253 144.604 93.8458 145.359C93.2664 146.108 92.4168 146.482 91.297 146.482C90.2228 146.482 89.3927 146.098 88.8068 145.33C88.2208 144.555 87.9279 143.439 87.9279 141.98C87.9279 139.005 89.0509 137.518 91.297 137.518C92.3973 137.518 93.2404 137.905 93.8263 138.68C94.4188 139.448 94.715 140.548 94.715 141.98ZM101.434 137.723L93.5138 152H91.1701L99.09 137.723H101.434ZM100.389 147.703C100.389 148.53 100.46 149.148 100.604 149.559C100.753 149.962 100.991 150.164 101.317 150.164C101.942 150.164 102.254 149.344 102.254 147.703C102.254 146.076 101.942 145.262 101.317 145.262C100.991 145.262 100.753 145.464 100.604 145.867C100.46 146.264 100.389 146.876 100.389 147.703ZM104.715 147.684C104.715 149.174 104.425 150.298 103.846 151.053C103.266 151.801 102.417 152.176 101.297 152.176C100.223 152.176 99.3927 151.792 98.8068 151.023C98.2208 150.249 97.9279 149.135 97.9279 147.684C97.9279 144.708 99.0509 143.221 101.297 143.221C102.397 143.221 103.24 143.608 103.826 144.383C104.419 145.151 104.715 146.251 104.715 147.684Z" fill="white"/>
<defs>
<linearGradient id="paint0_linear_203_620" x1="-35.0389" y1="20.5" x2="212.961" y2="188" gradientUnits="userSpaceOnUse">
<stop stop-color="#B61AFF"/>
<stop offset="1" stop-color="#001AFF"/>
</linearGradient>
<linearGradient id="paint1_linear_203_620" x1="103.461" y1="-4.85778e-06" x2="184.961" y2="103" gradientUnits="userSpaceOnUse">
<stop stop-color="#43E9FF"/>
<stop offset="1" stop-color="#00ABAB"/>
</linearGradient>
</defs>
</svg>
