<svg width="313" height="215" viewBox="0 0 313 215" fill="none" xmlns="http://www.w3.org/2000/svg">
<g opacity="0.8" clip-path="url(#clip0_2442_3)">
<path d="M1106.97 188.204L1100.1 185.447L1093.22 219.09L1086.34 222.537L1079.47 186.76L1072.59 181.64L1065.71 196.41L1058.83 189.616L1051.96 161.782L1045.08 235.042L1038.2 221.06L1031.33 180.458L1024.45 193.751L1017.57 242.756L1010.7 181.738L1003.82 171.662L996.941 248.762L990.064 240.294L983.187 227.592L976.31 222.143L969.433 172.252L962.555 204.845L955.678 223.062L948.801 140.644L941.924 167.526L935.047 190.994L928.17 166.968L921.293 247.942L914.416 188.303L907.539 134.703L900.662 146.224L893.785 196.082L886.907 179.408L880.03 202.449L873.153 190.239L866.276 199.397L859.399 166.869L852.522 201.53L845.645 229.725L838.768 257.592L831.891 248.762L825.014 218.959L818.137 121.673L811.259 143.04L804.382 175.206L797.505 134.408L790.628 181.902L783.751 146.519L776.874 167.427L769.997 168.872L763.12 169.791L756.243 158.5L749.366 121.902L742.488 104.933L735.611 131.388L728.734 107.395L721.857 146.913L714.98 93.248L708.103 208.423L701.226 225.228L694.349 153.872L687.472 121.738L680.595 115.239L673.717 114.353L666.84 99.2546L659.963 110.874L653.086 152.263L646.209 102.931L639.332 136.574L632.455 91.2786L625.578 94.725L618.701 146.815L611.824 141.76L604.947 147.11L598.069 122.099L591.192 124.856L584.315 100.436L577.438 113.139L570.561 96.2021L563.684 119.112L556.807 116.388L549.93 121.082L543.053 71.6506L536.176 80.1517L529.298 106.607L522.421 98.3027L515.544 112.482L508.667 84.7469L501.79 109.266L494.913 88.5872L488.036 87.6681L481.159 96.5303L474.568 102.767L467.691 86.027L460.814 93.5434L453.937 86.0926L447.06 74.539L440.183 107.788L433.306 94.167L426.429 97.1867L419.551 105.327L412.674 81.1364L405.797 150.95L398.92 155.414L392.043 140.939L385.166 126.301L378.289 98.1058L371.412 131.158L364.535 85.2064L357.658 105.885L350.78 213.478L343.903 176.355L337.026 111.957L330.149 102.438L323.272 82.1211L316.395 146.158L309.518 147.602L302.641 126.793L295.764 77.0992L288.887 101.487L282.01 128.007L275.132 107.23L268.255 69.0248L261.378 61.2458L254.501 90.7535L247.624 76.8366L240.747 77.2633L233.87 87.9964L226.993 57.3727L220.116 53.434L213.239 99.911L206.361 62.6244L199.484 73.9482L192.607 99.5172L185.73 119.08L178.853 132.602L171.976 82.2524L165.099 69.8782L158.222 93.7403L151.345 148.653L144.468 115.075L137.59 121.968L130.713 124.627L123.836 80.6112L116.959 62.0992L110.082 69.4515L103.205 73.3246L96.3279 54.6156L89.4508 38.6966L82.5737 95.2502L75.6966 156.005L68.8195 120.786L61.9424 87.0117L55.0653 98.9592L48.1882 55.2721L41.3111 17.4603L34.434 0.326782L27.5569 8.00731L20.6798 36.6616L13.8027 50.5456L6.92565 42.2414L0.0854492 17.9526V257.592H6.92565H13.8027H20.6798H27.5569H34.434H41.3111H48.1882H55.0653H61.9424H68.8195H75.6966H82.5737H89.4508H96.3279H103.205H110.082H116.959H123.836H130.713H137.59H144.468H151.345H158.222H165.099H171.976H178.853H185.73H192.607H199.484H206.361H213.239H220.116H226.993H233.87H240.747H247.624H254.501H261.378H268.255H275.132H282.01H288.887H295.764H302.641H309.518H316.395H323.272H330.149H337.026H343.903H350.78H357.658H364.535H371.412H378.289H385.166H392.043H398.92H405.797H412.674H419.551H426.429H433.306H440.183H447.06H453.937H460.814H467.691H474.568H481.159H488.036H494.913H501.79H508.667H515.544H522.421H529.298H536.176H543.053H549.93H556.807H563.684H570.561H577.438H584.315H591.192H598.069H604.947H611.824H618.701H625.578H632.455H639.332H646.209H653.086H659.963H666.84H673.717H680.595H687.472H694.349H701.226H708.103H714.98H721.857H728.734H735.611H742.488H749.366H756.243H763.12H769.997H776.874H783.751H790.628H797.505H804.382H811.259H818.137H825.014H831.891H838.768H845.645H852.522H859.399H866.276H873.153H880.03H886.907H893.785H900.662H907.539H914.416H921.293H928.17H935.047H941.924H948.801H955.678H962.555H969.433H976.31H983.187H990.064H996.941H1003.82H1010.7H1017.57H1024.45H1031.33H1038.2H1045.08H1051.96H1058.83H1065.71H1072.59H1079.47H1086.34H1093.22H1100.1H1106.97V188.204Z" fill="url(#paint0_linear_2442_3)"/>
<path d="M838.768 257.592L845.645 229.725L852.522 201.53L859.399 166.869L866.276 199.397L873.153 190.239L880.03 202.449L886.907 179.408L893.785 196.082L900.662 146.224L907.539 134.703L914.416 188.303L921.293 247.942L928.17 166.968L935.047 190.994L941.924 167.526L948.801 140.644L955.678 223.062L962.555 204.845L969.433 172.252L976.31 222.143L983.187 227.592L990.064 240.294L996.941 248.762L1003.82 171.662L1010.7 181.738L1017.57 242.756L1024.45 193.751L1031.33 180.458L1038.2 221.06L1045.08 235.042L1051.96 161.782L1058.83 189.616L1065.71 196.41L1072.59 181.64L1079.47 186.76L1086.34 222.537L1093.22 219.09L1100.1 185.447L1106.97 188.204V257.592H1100.1H1093.22H1086.34H1079.47H1072.59H1065.71H1058.83H1051.96H1045.08H1038.2H1031.33H1024.45H1017.57H1010.7H1003.82H996.941H990.064H983.187H976.31H969.433H962.555H955.678H948.801H941.924H935.047H928.17H921.293H914.416H907.539H900.662H893.785H886.907H880.03H873.153H866.276H859.399H852.522H845.645H838.768ZM838.768 257.592L831.891 248.762L825.014 218.959L818.137 121.673L811.259 143.04L804.382 175.206L797.505 134.408L790.628 181.902L783.751 146.519L776.874 167.427L769.997 168.872L763.12 169.791L756.243 158.5L749.366 121.902L742.488 104.933L735.611 131.388L728.734 107.395L721.857 146.913L714.98 93.248L708.103 208.423L701.226 225.228L694.349 153.872L687.472 121.738L680.595 115.239L673.717 114.353L666.84 99.2546L659.963 110.874L653.086 152.263L646.209 102.931L639.332 136.574L632.455 91.2786L625.578 94.725L618.701 146.815L611.824 141.76L604.947 147.11L598.069 122.099L591.192 124.856L584.315 100.436L577.438 113.139L570.561 96.2021L563.684 119.112L556.807 116.388L549.93 121.082L543.053 71.6506L536.176 80.1517L529.298 106.607L522.421 98.3027L515.544 112.482L508.667 84.7469L501.79 109.266L494.913 88.5872L488.036 87.6681L481.159 96.5303L474.568 102.767L467.691 86.027L460.814 93.5434L453.937 86.0926L447.06 74.539L440.183 107.788L433.306 94.167L426.429 97.1867L419.551 105.327L412.674 81.1364L405.797 150.95L398.92 155.414L392.043 140.939L385.166 126.301L378.289 98.1058L371.412 131.158L364.535 85.2064L357.658 105.885L350.78 213.478L343.903 176.355L337.026 111.957L330.149 102.438L323.272 82.1211L316.395 146.158L309.518 147.602L302.641 126.793L295.764 77.0992L288.887 101.487L282.01 128.007L275.132 107.23L268.255 69.0248L261.378 61.2458L254.501 90.7535L247.624 76.8366L240.747 77.2633L233.87 87.9964L226.993 57.3727L220.116 53.434L213.239 99.911L206.361 62.6244L199.484 73.9482L192.607 99.5172L185.73 119.08L178.853 132.602L171.976 82.2524L165.099 69.8782L158.222 93.7403L151.345 148.653L144.468 115.075L137.59 121.968L130.713 124.627L123.836 80.6112L116.959 62.0992L110.082 69.4515L103.205 73.3246L96.3279 54.6156L89.4508 38.6966L82.5737 95.2502L75.6966 156.005L68.8195 120.786L61.9424 87.0117L55.0653 98.9592L48.1882 55.2721L41.3111 17.4603L34.434 0.326782L27.5569 8.00731L20.6798 36.6616L13.8027 50.5456L6.92565 42.2414L0.0854492 17.9526V257.592H6.92565H13.8027H20.6798H27.5569H34.434H41.3111H48.1882H55.0653H61.9424H68.8195H75.6966H82.5737H89.4508H96.3279H103.205H110.082H116.959H123.836H130.713H137.59H144.468H151.345H158.222H165.099H171.976H178.853H185.73H192.607H199.484H206.361H213.239H220.116H226.993H233.87H240.747H247.624H254.501H261.378H268.255H275.132H282.01H288.887H295.764H302.641H309.518H316.395H323.272H330.149H337.026H343.903H350.78H357.658H364.535H371.412H378.289H385.166H392.043H398.92H405.797H412.674H419.551H426.429H433.306H440.183H447.06H453.937H460.814H467.691H474.568H481.159H488.036H494.913H501.79H508.667H515.544H522.421H529.298H536.176H543.053H549.93H556.807H563.684H570.561H577.438H584.315H591.192H598.069H604.947H611.824H618.701H625.578H632.455H639.332H646.209H653.086H659.963H666.84H673.717H680.595H687.472H694.349H701.226H708.103H714.98H721.857H728.734H735.611H742.488H749.366H756.243H763.12H769.997H776.874H783.751H790.628H797.505H804.382H811.259H818.137H825.014H831.891H838.768Z" stroke="#646981" stroke-linejoin="round"/>
<path d="M838.768 257.592L845.645 229.725L852.522 201.53L859.399 166.869L866.276 199.397L873.153 190.239L880.03 202.449L886.907 179.408L893.785 196.082L900.662 146.224L907.539 134.703L914.416 188.303L921.293 247.942L928.17 166.968L935.047 190.994L941.924 167.526L948.801 140.644L955.678 223.062L962.555 204.845L969.433 172.252L976.31 222.143L983.187 227.592L990.064 240.294L996.941 248.762L1003.82 171.662L1010.7 181.738L1017.57 242.756L1024.45 193.751L1031.33 180.458L1038.2 221.06L1045.08 235.042L1051.96 161.782L1058.83 189.616L1065.71 196.41L1072.59 181.64L1079.47 186.76L1086.34 222.537L1093.22 219.09L1100.1 185.447L1106.97 188.204V257.592H1100.1H1093.22H1086.34H1079.47H1072.59H1065.71H1058.83H1051.96H1045.08H1038.2H1031.33H1024.45H1017.57H1010.7H1003.82H996.941H990.064H983.187H976.31H969.433H962.555H955.678H948.801H941.924H935.047H928.17H921.293H914.416H907.539H900.662H893.785H886.907H880.03H873.153H866.276H859.399H852.522H845.645H838.768ZM838.768 257.592L831.891 248.762L825.014 218.959L818.137 121.673L811.259 143.04L804.382 175.206L797.505 134.408L790.628 181.902L783.751 146.519L776.874 167.427L769.997 168.872L763.12 169.791L756.243 158.5L749.366 121.902L742.488 104.933L735.611 131.388L728.734 107.395L721.857 146.913L714.98 93.248L708.103 208.423L701.226 225.228L694.349 153.872L687.472 121.738L680.595 115.239L673.717 114.353L666.84 99.2546L659.963 110.874L653.086 152.263L646.209 102.931L639.332 136.574L632.455 91.2786L625.578 94.725L618.701 146.815L611.824 141.76L604.947 147.11L598.069 122.099L591.192 124.856L584.315 100.436L577.438 113.139L570.561 96.2021L563.684 119.112L556.807 116.388L549.93 121.082L543.053 71.6506L536.176 80.1517L529.298 106.607L522.421 98.3027L515.544 112.482L508.667 84.7469L501.79 109.266L494.913 88.5872L488.036 87.6681L481.159 96.5303L474.568 102.767L467.691 86.027L460.814 93.5434L453.937 86.0926L447.06 74.539L440.183 107.788L433.306 94.167L426.429 97.1867L419.551 105.327L412.674 81.1364L405.797 150.95L398.92 155.414L392.043 140.939L385.166 126.301L378.289 98.1058L371.412 131.158L364.535 85.2064L357.658 105.885L350.78 213.478L343.903 176.355L337.026 111.957L330.149 102.438L323.272 82.1211L316.395 146.158L309.518 147.602L302.641 126.793L295.764 77.0992L288.887 101.487L282.01 128.007L275.132 107.23L268.255 69.0248L261.378 61.2458L254.501 90.7535L247.624 76.8366L240.747 77.2633L233.87 87.9964L226.993 57.3727L220.116 53.434L213.239 99.911L206.361 62.6244L199.484 73.9482L192.607 99.5172L185.73 119.08L178.853 132.602L171.976 82.2524L165.099 69.8782L158.222 93.7403L151.345 148.653L144.468 115.075L137.59 121.968L130.713 124.627L123.836 80.6112L116.959 62.0992L110.082 69.4515L103.205 73.3246L96.3279 54.6156L89.4508 38.6966L82.5737 95.2502L75.6966 156.005L68.8195 120.786L61.9424 87.0117L55.0653 98.9592L48.1882 55.2721L41.3111 17.4603L34.434 0.326782L27.5569 8.00731L20.6798 36.6616L13.8027 50.5456L6.92565 42.2414L0.0854492 17.9526V257.592H6.92565H13.8027H20.6798H27.5569H34.434H41.3111H48.1882H55.0653H61.9424H68.8195H75.6966H82.5737H89.4508H96.3279H103.205H110.082H116.959H123.836H130.713H137.59H144.468H151.345H158.222H165.099H171.976H178.853H185.73H192.607H199.484H206.361H213.239H220.116H226.993H233.87H240.747H247.624H254.501H261.378H268.255H275.132H282.01H288.887H295.764H302.641H309.518H316.395H323.272H330.149H337.026H343.903H350.78H357.658H364.535H371.412H378.289H385.166H392.043H398.92H405.797H412.674H419.551H426.429H433.306H440.183H447.06H453.937H460.814H467.691H474.568H481.159H488.036H494.913H501.79H508.667H515.544H522.421H529.298H536.176H543.053H549.93H556.807H563.684H570.561H577.438H584.315H591.192H598.069H604.947H611.824H618.701H625.578H632.455H639.332H646.209H653.086H659.963H666.84H673.717H680.595H687.472H694.349H701.226H708.103H714.98H721.857H728.734H735.611H742.488H749.366H756.243H763.12H769.997H776.874H783.751H790.628H797.505H804.382H811.259H818.137H825.014H831.891H838.768Z" stroke="url(#paint1_linear_2442_3)" stroke-linejoin="round"/>
<path d="M1106.97 188.204L1100.1 185.447L1093.22 219.09L1086.34 222.537L1079.47 186.76L1072.59 181.64L1065.71 196.41L1058.83 189.616L1051.96 161.782L1045.08 235.042L1038.2 221.06L1031.33 180.458L1024.45 193.751L1017.57 242.756L1010.7 181.738L1003.82 171.662L996.941 248.762L990.064 240.294L983.187 227.592L976.31 222.143L969.433 172.252L962.555 204.845L955.678 223.062L948.801 140.644L941.924 167.526L935.047 190.994L928.17 166.968L921.293 247.942L914.416 188.303L907.539 134.703L900.662 146.224L893.785 196.082L886.907 179.408L880.03 202.449L873.153 190.239L866.276 199.397L859.399 166.869L852.522 201.53L845.645 229.725L838.768 257.592L831.891 248.762L825.014 218.959L818.137 121.673L811.259 143.04L804.382 175.206L797.505 134.408L790.628 181.902L783.751 146.519L776.874 167.427L769.997 168.872L763.12 169.791L756.243 158.5L749.366 121.902L742.488 104.933L735.611 131.388L728.734 107.395L721.857 146.913L714.98 93.248L708.103 208.423L701.226 225.228L694.349 153.872L687.472 121.738L680.595 115.239L673.717 114.353L666.84 99.2546L659.963 110.874L653.086 152.263L646.209 102.931L639.332 136.574L632.455 91.2786L625.578 94.725L618.701 146.815L611.824 141.76L604.947 147.11L598.069 122.099L591.192 124.856L584.315 100.436L577.438 113.139L570.561 96.2021L563.684 119.112L556.807 116.388L549.93 121.082L543.053 71.6506L536.176 80.1517L529.298 106.607L522.421 98.3027L515.544 112.482L508.667 84.7469L501.79 109.266L494.913 88.5872L488.036 87.6681L481.159 96.5303L474.568 102.767L467.691 86.027L460.814 93.5434L453.937 86.0926L447.06 74.539L440.183 107.788L433.306 94.167L426.429 97.1867L419.551 105.327L412.674 81.1364L405.797 150.95L398.92 155.414L392.043 140.939L385.166 126.301L378.289 98.1058L371.412 131.158L364.535 85.2064L357.658 105.885L350.78 213.478L343.903 176.355L337.026 111.957L330.149 102.438L323.272 82.1211L316.395 146.158L309.518 147.602L302.641 126.793L295.764 77.0992L288.887 101.487L282.01 128.007L275.132 107.23L268.255 69.0248L261.378 61.2458L254.501 90.7535L247.624 76.8366L240.747 77.2633L233.87 87.9964L226.993 57.3727L220.116 53.434L213.239 99.911L206.361 62.6244L199.484 73.9482L192.607 99.5172L185.73 119.08L178.853 132.602L171.976 82.2524L165.099 69.8782L158.222 93.7403L151.345 148.653L144.468 115.075L137.59 121.968L130.713 124.627L123.836 80.6112L116.959 62.0992L110.082 69.4515L103.205 73.3246L96.3279 54.6156L89.4508 38.6966L82.5737 95.2502L75.6966 156.005L68.8195 120.786L61.9424 87.0117L55.0653 98.9592L48.1882 55.2721L41.3111 17.4603L34.434 0.326782L27.5569 8.00731L20.6798 36.6616L13.8027 50.5456L6.92565 42.2414L0.0854492 17.9526" stroke="#646981" stroke-linecap="round" stroke-linejoin="round"/>
<path d="M1106.97 188.204L1100.1 185.447L1093.22 219.09L1086.34 222.537L1079.47 186.76L1072.59 181.64L1065.71 196.41L1058.83 189.616L1051.96 161.782L1045.08 235.042L1038.2 221.06L1031.33 180.458L1024.45 193.751L1017.57 242.756L1010.7 181.738L1003.82 171.662L996.941 248.762L990.064 240.294L983.187 227.592L976.31 222.143L969.433 172.252L962.555 204.845L955.678 223.062L948.801 140.644L941.924 167.526L935.047 190.994L928.17 166.968L921.293 247.942L914.416 188.303L907.539 134.703L900.662 146.224L893.785 196.082L886.907 179.408L880.03 202.449L873.153 190.239L866.276 199.397L859.399 166.869L852.522 201.53L845.645 229.725L838.768 257.592L831.891 248.762L825.014 218.959L818.137 121.673L811.259 143.04L804.382 175.206L797.505 134.408L790.628 181.902L783.751 146.519L776.874 167.427L769.997 168.872L763.12 169.791L756.243 158.5L749.366 121.902L742.488 104.933L735.611 131.388L728.734 107.395L721.857 146.913L714.98 93.248L708.103 208.423L701.226 225.228L694.349 153.872L687.472 121.738L680.595 115.239L673.717 114.353L666.84 99.2546L659.963 110.874L653.086 152.263L646.209 102.931L639.332 136.574L632.455 91.2786L625.578 94.725L618.701 146.815L611.824 141.76L604.947 147.11L598.069 122.099L591.192 124.856L584.315 100.436L577.438 113.139L570.561 96.2021L563.684 119.112L556.807 116.388L549.93 121.082L543.053 71.6506L536.176 80.1517L529.298 106.607L522.421 98.3027L515.544 112.482L508.667 84.7469L501.79 109.266L494.913 88.5872L488.036 87.6681L481.159 96.5303L474.568 102.767L467.691 86.027L460.814 93.5434L453.937 86.0926L447.06 74.539L440.183 107.788L433.306 94.167L426.429 97.1867L419.551 105.327L412.674 81.1364L405.797 150.95L398.92 155.414L392.043 140.939L385.166 126.301L378.289 98.1058L371.412 131.158L364.535 85.2064L357.658 105.885L350.78 213.478L343.903 176.355L337.026 111.957L330.149 102.438L323.272 82.1211L316.395 146.158L309.518 147.602L302.641 126.793L295.764 77.0992L288.887 101.487L282.01 128.007L275.132 107.23L268.255 69.0248L261.378 61.2458L254.501 90.7535L247.624 76.8366L240.747 77.2633L233.87 87.9964L226.993 57.3727L220.116 53.434L213.239 99.911L206.361 62.6244L199.484 73.9482L192.607 99.5172L185.73 119.08L178.853 132.602L171.976 82.2524L165.099 69.8782L158.222 93.7403L151.345 148.653L144.468 115.075L137.59 121.968L130.713 124.627L123.836 80.6112L116.959 62.0992L110.082 69.4515L103.205 73.3246L96.3279 54.6156L89.4508 38.6966L82.5737 95.2502L75.6966 156.005L68.8195 120.786L61.9424 87.0117L55.0653 98.9592L48.1882 55.2721L41.3111 17.4603L34.434 0.326782L27.5569 8.00731L20.6798 36.6616L13.8027 50.5456L6.92565 42.2414L0.0854492 17.9526" stroke="url(#paint2_linear_2442_3)" stroke-linecap="round" stroke-linejoin="round"/>
<path d="M50.915 211H49.8076V203.918C49.8076 203.649 49.8076 203.419 49.8076 203.228C49.8122 203.032 49.8167 202.854 49.8213 202.694C49.8304 202.53 49.8418 202.364 49.8555 202.195C49.7142 202.341 49.582 202.466 49.459 202.571C49.3359 202.672 49.1833 202.797 49.001 202.947L47.8594 203.863L47.2646 203.091L49.9717 201.006H50.915V211ZM63.2129 203.508H64.4639L61.2305 207.124L64.7236 211H63.3906L59.9863 207.199V211H58.8447V203.508H59.9863V207.145L63.2129 203.508ZM72.0312 205.388C72.0312 205.857 71.8945 206.224 71.6211 206.488C71.3477 206.748 70.9945 206.924 70.5615 207.015V207.069C71.0309 207.133 71.4342 207.302 71.7715 207.575C72.1133 207.844 72.2842 208.257 72.2842 208.812C72.2842 209.241 72.1816 209.619 71.9766 209.947C71.7715 210.275 71.4502 210.533 71.0127 210.72C70.5752 210.907 70.0055 211 69.3037 211H66.0771V203.508H69.2764C69.8141 203.508 70.2881 203.569 70.6982 203.692C71.113 203.811 71.4388 204.007 71.6758 204.28C71.9128 204.554 72.0312 204.923 72.0312 205.388ZM71.1016 208.812C71.1016 208.37 70.9329 208.051 70.5957 207.855C70.263 207.66 69.7777 207.562 69.1396 207.562H67.2188V210.077H69.167C69.7959 210.077 70.2744 209.981 70.6025 209.79C70.9352 209.594 71.1016 209.268 71.1016 208.812ZM70.876 205.518C70.876 205.162 70.7461 204.898 70.4863 204.725C70.2266 204.547 69.8005 204.458 69.208 204.458H67.2188V206.611H69.0098C69.625 206.611 70.0898 206.522 70.4043 206.345C70.7188 206.167 70.876 205.891 70.876 205.518ZM76.9189 203.385C77.8122 203.385 78.4753 203.585 78.9082 203.986C79.3411 204.387 79.5576 205.028 79.5576 205.907V211H78.7305L78.5117 209.893H78.457C78.2474 210.166 78.0286 210.396 77.8008 210.583C77.5729 210.765 77.3086 210.904 77.0078 211C76.7116 211.091 76.347 211.137 75.9141 211.137C75.4583 211.137 75.0527 211.057 74.6973 210.897C74.3464 210.738 74.0684 210.496 73.8633 210.173C73.6628 209.849 73.5625 209.439 73.5625 208.942C73.5625 208.195 73.8587 207.621 74.4512 207.22C75.0436 206.819 75.946 206.6 77.1582 206.563L78.4502 206.509V206.051C78.4502 205.404 78.3112 204.95 78.0332 204.69C77.7552 204.431 77.3633 204.301 76.8574 204.301C76.4655 204.301 76.0918 204.358 75.7363 204.472C75.3809 204.586 75.0436 204.72 74.7246 204.875L74.376 204.014C74.7132 203.84 75.1006 203.692 75.5381 203.569C75.9756 203.446 76.4359 203.385 76.9189 203.385ZM78.4365 207.309L77.2949 207.356C76.3607 207.393 75.7021 207.546 75.3193 207.814C74.9365 208.083 74.7451 208.464 74.7451 208.956C74.7451 209.384 74.875 209.701 75.1348 209.906C75.3945 210.111 75.7386 210.214 76.167 210.214C76.8324 210.214 77.377 210.029 77.8008 209.66C78.2246 209.291 78.4365 208.737 78.4365 207.999V207.309ZM85.416 203.371C86.3503 203.371 87.0954 203.692 87.6514 204.335C88.2074 204.978 88.4854 205.944 88.4854 207.233C88.4854 208.086 88.3577 208.801 88.1025 209.38C87.8473 209.959 87.4873 210.396 87.0225 210.692C86.5622 210.989 86.0176 211.137 85.3887 211.137C84.9922 211.137 84.6436 211.084 84.3428 210.979C84.042 210.875 83.7845 210.733 83.5703 210.556C83.3561 210.378 83.1784 210.184 83.0371 209.975H82.9551C82.9688 210.152 82.9847 210.367 83.0029 210.617C83.0257 210.868 83.0371 211.087 83.0371 211.273V214.35H81.8955V203.508H82.832L82.9824 204.615H83.0371C83.1829 204.387 83.3607 204.18 83.5703 203.993C83.7799 203.802 84.0352 203.651 84.3359 203.542C84.6413 203.428 85.0013 203.371 85.416 203.371ZM85.2178 204.328C84.6982 204.328 84.279 204.428 83.96 204.629C83.6455 204.829 83.4154 205.13 83.2695 205.531C83.1237 205.928 83.0462 206.427 83.0371 207.028V207.247C83.0371 207.881 83.1055 208.416 83.2422 208.854C83.3835 209.291 83.6136 209.624 83.9326 209.852C84.2562 210.079 84.6891 210.193 85.2314 210.193C85.6963 210.193 86.0837 210.068 86.3936 209.817C86.7035 209.567 86.9336 209.218 87.084 208.771C87.2389 208.32 87.3164 207.803 87.3164 207.22C87.3164 206.336 87.1432 205.634 86.7969 205.114C86.4551 204.59 85.9287 204.328 85.2178 204.328ZM95.5742 204.472H93.1064V211H91.9854V204.472H89.5518V203.508H95.5742V204.472ZM99.8604 203.385C100.754 203.385 101.417 203.585 101.85 203.986C102.283 204.387 102.499 205.028 102.499 205.907V211H101.672L101.453 209.893H101.398C101.189 210.166 100.97 210.396 100.742 210.583C100.514 210.765 100.25 210.904 99.9492 211C99.653 211.091 99.2884 211.137 98.8555 211.137C98.3997 211.137 97.9941 211.057 97.6387 210.897C97.2878 210.738 97.0098 210.496 96.8047 210.173C96.6042 209.849 96.5039 209.439 96.5039 208.942C96.5039 208.195 96.8001 207.621 97.3926 207.22C97.985 206.819 98.8874 206.6 100.1 206.563L101.392 206.509V206.051C101.392 205.404 101.253 204.95 100.975 204.69C100.697 204.431 100.305 204.301 99.7988 204.301C99.4069 204.301 99.0332 204.358 98.6777 204.472C98.3223 204.586 97.985 204.72 97.666 204.875L97.3174 204.014C97.6546 203.84 98.042 203.692 98.4795 203.569C98.917 203.446 99.3773 203.385 99.8604 203.385ZM101.378 207.309L100.236 207.356C99.3021 207.393 98.6436 207.546 98.2607 207.814C97.8779 208.083 97.6865 208.464 97.6865 208.956C97.6865 209.384 97.8164 209.701 98.0762 209.906C98.3359 210.111 98.68 210.214 99.1084 210.214C99.7738 210.214 100.318 210.029 100.742 209.66C101.166 209.291 101.378 208.737 101.378 207.999V207.309ZM110.456 211H109.301V204.458H107.024C106.933 205.638 106.817 206.65 106.676 207.493C106.539 208.332 106.366 209.018 106.156 209.551C105.951 210.079 105.701 210.469 105.404 210.72C105.113 210.966 104.764 211.089 104.358 211.089C104.235 211.089 104.119 211.082 104.01 211.068C103.9 211.055 103.807 211.032 103.729 211V210.139C103.789 210.157 103.85 210.171 103.914 210.18C103.982 210.189 104.053 210.193 104.126 210.193C104.331 210.193 104.518 210.109 104.687 209.94C104.86 209.767 105.015 209.507 105.151 209.161C105.293 208.815 105.418 208.377 105.527 207.849C105.637 207.315 105.732 206.689 105.814 205.969C105.901 205.244 105.976 204.424 106.04 203.508H110.456V211Z" fill="#A1A6BE"/>
<path d="M206.253 211H199.684V210.022L202.315 207.377C203.118 206.566 203.646 205.987 203.901 205.641C204.157 205.294 204.348 204.957 204.476 204.629C204.603 204.301 204.667 203.948 204.667 203.569C204.667 203.036 204.505 202.615 204.182 202.305C203.858 201.99 203.409 201.833 202.835 201.833C202.42 201.833 202.026 201.901 201.652 202.038C201.283 202.175 200.871 202.423 200.415 202.783L199.813 202.011C200.734 201.245 201.737 200.862 202.821 200.862C203.76 200.862 204.496 201.104 205.029 201.587C205.562 202.065 205.829 202.71 205.829 203.521C205.829 204.155 205.651 204.782 205.296 205.401C204.94 206.021 204.275 206.805 203.3 207.753L201.112 209.893V209.947H206.253V211ZM216.22 203.508H217.464L214.23 207.124L217.73 211H216.404L212.986 207.206V211H211.852V203.508H212.986V207.151L216.22 203.508ZM225.202 205.388C225.202 205.875 225.061 206.247 224.778 206.502C224.5 206.753 224.108 206.921 223.603 207.008V207.069C224.241 207.156 224.705 207.343 224.997 207.63C225.293 207.917 225.441 208.313 225.441 208.819C225.441 209.517 225.184 210.054 224.669 210.433C224.159 210.811 223.411 211 222.427 211H219.125V203.508H222.413C224.272 203.508 225.202 204.134 225.202 205.388ZM224.307 208.744C224.307 208.339 224.152 208.045 223.842 207.862C223.536 207.675 223.028 207.582 222.317 207.582H220.26V210.05H222.345C223.653 210.05 224.307 209.615 224.307 208.744ZM224.095 205.497C224.095 205.132 223.953 204.875 223.671 204.725C223.393 204.57 222.969 204.492 222.399 204.492H220.26V206.604H222.181C222.882 206.604 223.377 206.518 223.664 206.345C223.951 206.172 224.095 205.889 224.095 205.497ZM231.703 211L231.478 209.934H231.423C231.049 210.403 230.675 210.722 230.302 210.891C229.933 211.055 229.47 211.137 228.914 211.137C228.171 211.137 227.588 210.945 227.164 210.562C226.745 210.18 226.535 209.635 226.535 208.929C226.535 207.416 227.745 206.623 230.165 206.55L231.437 206.509V206.044C231.437 205.456 231.309 205.023 231.054 204.745C230.803 204.463 230.4 204.321 229.844 204.321C229.219 204.321 228.513 204.513 227.725 204.896L227.376 204.027C227.745 203.827 228.148 203.67 228.586 203.556C229.028 203.442 229.47 203.385 229.912 203.385C230.805 203.385 231.466 203.583 231.895 203.979C232.327 204.376 232.544 205.012 232.544 205.887V211H231.703ZM229.14 210.2C229.846 210.2 230.4 210.007 230.801 209.619C231.206 209.232 231.409 208.689 231.409 207.992V207.315L230.274 207.363C229.372 207.395 228.72 207.536 228.319 207.787C227.923 208.033 227.725 208.418 227.725 208.942C227.725 209.353 227.848 209.665 228.094 209.879C228.344 210.093 228.693 210.2 229.14 210.2ZM238.375 211.137C237.887 211.137 237.441 211.048 237.035 210.87C236.634 210.688 236.297 210.41 236.023 210.036H235.941C235.996 210.474 236.023 210.888 236.023 211.28V214.363H234.889V203.508H235.812L235.969 204.533H236.023C236.315 204.123 236.655 203.827 237.042 203.645C237.429 203.462 237.874 203.371 238.375 203.371C239.368 203.371 240.134 203.711 240.672 204.39C241.214 205.069 241.485 206.021 241.485 207.247C241.485 208.478 241.21 209.435 240.658 210.118C240.111 210.797 239.35 211.137 238.375 211.137ZM238.211 204.335C237.445 204.335 236.892 204.547 236.55 204.971C236.208 205.395 236.033 206.069 236.023 206.994V207.247C236.023 208.3 236.199 209.054 236.55 209.51C236.901 209.961 237.464 210.187 238.238 210.187C238.885 210.187 239.391 209.924 239.756 209.4C240.125 208.876 240.31 208.154 240.31 207.233C240.31 206.299 240.125 205.584 239.756 205.087C239.391 204.586 238.876 204.335 238.211 204.335ZM248.526 204.479H246.093V211H244.958V204.479H242.552V203.508H248.526V204.479ZM254.617 211L254.392 209.934H254.337C253.963 210.403 253.59 210.722 253.216 210.891C252.847 211.055 252.384 211.137 251.828 211.137C251.085 211.137 250.502 210.945 250.078 210.562C249.659 210.18 249.449 209.635 249.449 208.929C249.449 207.416 250.659 206.623 253.079 206.55L254.351 206.509V206.044C254.351 205.456 254.223 205.023 253.968 204.745C253.717 204.463 253.314 204.321 252.758 204.321C252.133 204.321 251.427 204.513 250.639 204.896L250.29 204.027C250.659 203.827 251.062 203.67 251.5 203.556C251.942 203.442 252.384 203.385 252.826 203.385C253.719 203.385 254.38 203.583 254.809 203.979C255.242 204.376 255.458 205.012 255.458 205.887V211H254.617ZM252.054 210.2C252.76 210.2 253.314 210.007 253.715 209.619C254.12 209.232 254.323 208.689 254.323 207.992V207.315L253.188 207.363C252.286 207.395 251.634 207.536 251.233 207.787C250.837 208.033 250.639 208.418 250.639 208.942C250.639 209.353 250.762 209.665 251.008 209.879C251.258 210.093 251.607 210.2 252.054 210.2ZM263.388 211H262.239V204.479H259.99C259.867 206.101 259.696 207.388 259.478 208.341C259.259 209.293 258.974 209.991 258.623 210.433C258.277 210.875 257.835 211.096 257.297 211.096C257.051 211.096 256.855 211.068 256.709 211.014V210.173C256.809 210.2 256.923 210.214 257.051 210.214C257.575 210.214 257.992 209.66 258.302 208.553C258.612 207.445 258.846 205.764 259.006 203.508H263.388V211Z" fill="#A1A6BE"/>
</g>
<line x1="0.385803" y1="196.999" x2="312.023" y2="196.999" stroke="black"/>
<line x1="14.658" y1="13.7035" x2="14.658" y2="205.765" stroke="black"/>
<line x1="308.897" y1="13.7035" x2="308.897" y2="205.765" stroke="black"/>
<line x1="156.938" y1="13.7041" x2="156.7" y2="212.001" stroke="black"/>
<defs>
<linearGradient id="paint0_linear_2442_3" x1="553.53" y1="0.326782" x2="553.53" y2="257.592" gradientUnits="userSpaceOnUse">
<stop stop-color="#0A090A"/>
<stop offset="0.315625" stop-color="#050505" stop-opacity="0.32"/>
<stop offset="0.695833" stop-opacity="0"/>
</linearGradient>
<linearGradient id="paint1_linear_2442_3" x1="553.53" y1="0.326776" x2="590.739" y2="202.652" gradientUnits="userSpaceOnUse">
<stop stop-color="#43E9FF"/>
<stop offset="1" stop-color="#00ABAB"/>
</linearGradient>
<linearGradient id="paint2_linear_2442_3" x1="553.53" y1="0.326776" x2="590.739" y2="202.652" gradientUnits="userSpaceOnUse">
<stop stop-color="#43E9FF"/>
<stop offset="1" stop-color="#00ABAB"/>
</linearGradient>
<clipPath id="clip0_2442_3">
<rect width="294" height="215" fill="white" transform="translate(14)"/>
</clipPath>
</defs>
</svg>
